<svg width="78" height="78" viewBox="0 0 78 78" fill="none" xmlns="http://www.w3.org/2000/svg">
<path d="M30.3397 15C34.1887 8.33334 43.8113 8.33333 47.6603 15L64.1147 43.5C67.9637 50.1667 63.1525 58.5 55.4545 58.5H22.5455C14.8475 58.5 10.0363 50.1667 13.8853 43.5L30.3397 15Z" fill="#FCD11E"/>
<path d="M35.8293 46.608H40.4493V42.464H35.8293V46.608ZM36.0533 40.084H40.1133V38.264C40.1133 37.144 40.6453 36.808 42.3533 35.66C44.1453 34.316 45.0133 33.364 45.0133 30.872C45.0133 27.344 42.4373 26 38.8253 26C36.7253 26 35.1853 26.308 33.9253 26.812V30.2C34.8493 29.92 35.7453 29.696 37.2293 29.696C39.1613 29.696 40.0293 30.2 40.0293 31.516C40.0293 32.58 39.5813 33.112 38.4893 33.896C36.7813 35.156 36.0533 35.912 36.0533 37.788V40.084Z" fill="white"/>
</svg>
