<svg id="super_g" data-name="super g" xmlns="http://www.w3.org/2000/svg" width="18" height="18" viewBox="0 0 18 18">
  <path id="Shape" d="M8.04,3.48a4.988,4.988,0,0,1,3.48,1.34l2.54-2.48A8.647,8.647,0,0,0,8.04,0,8.993,8.993,0,0,0,0,4.96L2.91,7.22A5.44,5.44,0,0,1,8.04,3.48Z" transform="translate(0.96)" fill="#ea4335"/>
  <path id="Shape-2" data-name="Shape" d="M8.64,1.84A7.71,7.71,0,0,0,8.45,0H0V3.34H4.96A4.4,4.4,0,0,1,3.12,6.26l2.84,2.2A8.8,8.8,0,0,0,8.64,1.84Z" transform="translate(9 7.36)" fill="#4285f4"/>
  <path id="Shape-3" data-name="Shape" d="M3.88,5.82a5.54,5.54,0,0,1-.3-1.78,5.822,5.822,0,0,1,.29-1.78L.96,0a8.981,8.981,0,0,0,0,8.08L3.88,5.82Z" transform="translate(0 4.96)" fill="#fbbc05"/>
  <path id="Shape-4" data-name="Shape" d="M8.03,7.22a8.578,8.578,0,0,0,5.96-2.18l-2.84-2.2a5.327,5.327,0,0,1-3.12.9A5.418,5.418,0,0,1,2.91,0L0,2.26A8.978,8.978,0,0,0,8.03,7.22Z" transform="translate(0.97 10.78)" fill="#34a853"/>
  <path id="Shape-5" data-name="Shape" d="M0,0H18V18H0Z" fill="none"/>
</svg>
