<svg width="234" height="133" viewBox="0 0 234 133" fill="none" xmlns="http://www.w3.org/2000/svg">
<path d="M112.181 76.5565C111.826 77.2948 111.459 78.0299 111.117 78.7715C108.834 83.7284 107.292 88.9195 106.196 94.2537C106.06 94.914 105.972 95.5873 105.939 96.2606C105.91 96.8363 105.656 97.1908 105.139 97.3762C104.846 97.4803 104.55 97.5941 104.248 97.6397C103.132 97.8088 102.02 97.7502 100.917 97.503C99.5382 97.1973 98.5494 96.3972 98.1363 95.0474C97.8501 94.1139 97.6354 93.1283 97.5801 92.1558C97.4598 90.0026 97.4435 87.8462 97.4142 85.6897C97.3882 83.7935 97.411 81.894 97.3914 79.9977C97.3882 79.5944 97.2971 79.1943 97.2451 78.7715C96.793 78.8073 96.6889 79.0935 96.5946 79.3439C96.2856 80.1701 95.9375 80.9897 95.7164 81.8387C94.6202 86.0442 93.8396 90.3051 93.4753 94.6375C93.3713 95.88 93.316 97.1257 93.2444 98.3715C93.1956 99.2594 93.0265 99.5489 92.1548 99.7213C91.3969 99.8709 90.6066 99.9652 89.8357 99.9295C88.4599 99.8644 87.1068 99.6107 85.8025 99.1196C85.0284 98.8268 84.5177 98.3552 84.4234 97.5096C84.2217 95.7044 84.0136 93.8992 83.8412 92.0908C83.7859 91.5248 83.8314 90.9491 83.8314 90.3051C83.4444 90.4385 83.4411 90.7312 83.3533 90.9426C82.5369 92.8454 81.4863 94.5985 80.0259 96.0817C77.1441 99.0122 73.6346 100.225 69.5558 99.8872C67.9328 99.7538 66.3715 99.4156 64.9176 98.661C61.9155 97.1062 60.1493 94.5627 59.1866 91.4045C58.3116 88.539 58.0904 85.5889 58.2596 82.6128C58.4645 78.9862 59.1378 75.4506 60.4291 72.0452C61.2162 69.9668 62.1985 67.9957 63.6719 66.3109C64.9241 64.8765 66.378 63.7218 68.2385 63.1852C72.2912 62.0142 76.357 64.1349 77.8694 68.2397C78.559 70.1034 78.6631 72.0452 78.3671 74.0032C77.8694 77.2721 76.7148 80.2774 74.6364 82.8762C74.1387 83.5007 73.55 84.0732 72.932 84.5773C70.9577 86.1808 68.7069 86.7338 66.2056 86.1971C66.0593 86.1646 65.9129 86.1451 65.7405 86.1158C65.3535 89.3651 66.1601 92.1168 68.7622 94.2017C69.6859 94.94 70.743 95.3401 71.9107 95.4181C75.1177 95.6263 77.632 94.4001 79.4177 91.72C80.4552 90.162 81.0179 88.4056 81.4603 86.6102C81.6587 85.8035 81.8083 84.9872 81.9807 84.174C82.036 83.9203 82.088 83.6666 82.1596 83.4162C82.4361 82.4599 82.6735 82.2648 83.7371 82.1444C83.7534 81.9362 83.7826 81.7151 83.7924 81.4906C83.929 77.1777 84.0754 72.8681 84.1827 68.5552C84.2087 67.4656 84.1111 66.3759 84.0493 65.2863C83.994 64.2943 84.277 63.891 85.2495 63.891C87.2434 63.891 89.1461 64.4016 91.1042 65.0456V85.745C91.1628 85.7515 91.2245 85.758 91.2831 85.7678C91.5596 84.7269 91.8328 83.6829 92.1092 82.6421C92.8899 79.705 93.6542 76.7581 94.8967 73.9739C95.3391 72.9852 95.9245 72.0582 96.4872 71.128C96.7962 70.614 97.3101 70.3701 97.9021 70.253C99.3365 69.97 100.742 69.983 102.111 70.5555C102.397 70.6758 102.677 70.8157 102.95 70.9686C103.64 71.3556 103.971 71.9053 103.965 72.7445C103.936 77.3436 103.949 81.946 103.955 86.5451C103.955 86.9485 103.991 87.3518 104.014 87.8527C104.404 87.5925 104.456 87.2737 104.557 87.0037C105.403 84.7139 106.216 82.4111 107.078 80.1278C108.414 76.5793 109.777 73.0437 111.143 69.5082C111.358 68.952 111.661 68.4316 111.901 67.8851C112.064 67.5143 112.331 67.3094 112.718 67.2444C114.093 67.0232 115.453 66.9809 116.777 67.5501C118.13 68.1291 119.372 68.8707 120.368 69.9668C120.66 70.2888 120.908 70.6661 121.116 71.0499C121.418 71.6061 121.461 72.159 121.067 72.7315C120.049 74.2179 119.834 75.9645 119.561 77.6819C119.015 81.1101 118.979 84.5643 119.096 88.0251C119.145 89.4302 119.291 90.8288 119.711 92.1753C119.903 92.7901 120.166 93.3918 120.482 93.9545C120.862 94.6343 121.503 94.8717 122.277 94.7774C123.084 94.6798 123.76 94.335 124.336 93.7691C125.029 93.0828 125.536 92.2729 125.949 91.398C126.775 89.6448 127.201 87.7714 127.634 85.8979C127.855 84.9384 128.115 83.9886 128.343 83.0291C128.395 82.8047 128.402 82.5672 128.408 82.3363C128.473 79.2171 128.48 76.0979 128.61 72.9819C128.737 69.9473 128.899 66.9029 129.693 63.9463C129.895 63.2014 130.191 62.4696 130.526 61.7736C130.877 61.045 131.488 60.7425 132.327 60.8759C133.694 61.0938 135.043 61.3475 136.289 61.972C136.751 62.2029 137.187 62.4956 137.61 62.7949C138.026 63.0909 138.273 63.5169 138.384 64.0211C138.442 64.2976 138.397 64.5513 138.153 64.7139C136.692 65.7092 136.377 67.2834 136.104 68.8479C135.531 72.1362 135.43 75.4636 135.398 78.791C135.372 81.7281 135.414 84.6652 135.482 87.599C135.515 89.0789 135.668 90.5588 136.078 91.9899C136.211 92.4583 136.396 92.9299 136.647 93.3463C137.089 94.0846 137.818 94.3188 138.598 93.9382C139.051 93.7171 139.506 93.3918 139.808 92.9982C140.342 92.3022 140.823 91.5476 141.217 90.7637C142.355 88.4967 142.976 86.0507 143.568 83.5983C144.629 79.2008 145.393 74.7481 146.079 70.2823C146.242 69.2285 146.398 68.1779 146.567 67.124C146.6 66.9256 146.671 66.7337 146.736 66.4995C148.568 66.5711 150.347 66.6947 152.028 67.4103C152.334 67.5404 152.633 67.7258 152.874 67.9534C153.313 68.3698 153.287 68.7503 152.907 69.235C152.79 69.3813 152.728 69.5862 152.682 69.7716C152.646 69.918 152.676 70.0806 152.676 70.2367C152.676 78.3714 152.676 86.5094 152.676 94.644V95.558C153.134 95.6458 153.564 95.7044 153.98 95.8117C154.992 96.0719 155.466 96.6671 155.421 97.5648C155.388 98.1731 155.138 98.5341 154.556 98.7228C154.263 98.8171 153.947 98.8561 153.642 98.8951C152.757 99.0025 152.679 99.0773 152.679 99.9457C152.679 102.649 152.685 105.351 152.679 108.054C152.669 111.096 152.679 114.137 152.617 117.178C152.578 119.155 152.298 121.113 151.69 123.01C151.475 123.676 151.219 124.33 150.916 124.961C150.389 126.061 149.612 126.958 148.577 127.619C148.054 127.957 147.537 128.308 147.01 128.637C145.77 129.411 144.573 130.234 143.646 131.388C143.598 131.45 143.536 131.496 143.484 131.554C142.56 132.592 141.497 132.832 140.189 132.28C139.457 131.971 138.637 131.866 137.863 131.655C137.086 131.444 136.302 131.255 135.548 130.982C133.17 130.126 131.924 128.402 131.719 125.895C131.488 123.088 131.856 120.343 132.562 117.636C134.077 111.821 136.91 106.705 140.892 102.216C142.189 100.752 143.643 99.4546 145.23 98.3097C145.5 98.1145 145.676 97.9259 145.673 97.5583C145.657 94.231 145.66 90.9036 145.657 87.5762C145.657 87.5274 145.631 87.4786 145.598 87.3648C145.393 87.5697 145.37 87.8104 145.312 88.0283C144.7 90.2303 144.079 92.429 143.116 94.5139C142.537 95.7727 141.858 96.9696 140.872 97.9584C140.491 98.339 140.049 98.6837 139.577 98.9407C138.638 99.4546 137.636 99.4253 136.627 99.1066C135.502 98.7488 134.474 98.2056 133.492 97.5616C133.121 97.3209 132.783 97.0314 132.402 96.8103C131.049 96.0166 130.233 94.8294 129.79 93.3528C129.582 92.6567 129.371 91.9639 129.117 91.128C128.971 91.4403 128.863 91.6582 128.769 91.8794C128.138 93.3625 127.475 94.8294 126.541 96.1565C125.816 97.1875 124.96 98.082 123.929 98.8106C122.934 99.5131 121.822 99.7896 120.618 99.7603C117.405 99.679 115.186 98.0755 113.771 95.2685C112.906 93.5544 112.48 91.7135 112.236 89.8205C111.804 86.4508 111.823 83.0844 112.165 79.7082C112.269 78.6772 112.308 77.6363 112.379 76.602C112.318 76.5825 112.256 76.5597 112.194 76.5402L112.181 76.5565ZM145.605 101.878C145.367 102.063 145.244 102.151 145.13 102.252C143.858 103.345 142.817 104.636 141.913 106.041C140.231 108.656 138.946 111.46 138.023 114.426C137.044 117.565 136.38 120.762 136.572 124.08C136.64 125.287 136.904 126.431 137.587 127.466C138.66 129.095 140.937 129.007 141.952 127.95C142.502 127.378 143.002 126.718 143.367 126.015C143.793 125.192 144.115 124.301 144.365 123.403C145.162 120.534 145.517 117.591 145.575 114.628C145.657 110.601 145.637 106.574 145.657 102.548C145.657 102.372 145.634 102.197 145.608 101.881L145.605 101.878ZM74.2721 70.9913C74.2428 70.7084 74.2298 70.292 74.1452 69.8887C73.8883 68.6332 72.8604 68.038 71.6277 68.399C71.0325 68.5747 70.5739 68.9422 70.164 69.3911C69.2208 70.4221 68.567 71.6288 68.0694 72.9169C67.2335 75.0798 66.6513 77.3111 66.3715 79.6107C66.2805 80.3522 66.3065 81.1101 66.3488 81.8582C66.378 82.4046 66.6155 82.6128 67.1294 82.6583C68.3979 82.7656 69.5948 82.5315 70.4926 81.5752C71.1105 80.9182 71.6863 80.1961 72.1351 79.4188C73.602 76.859 74.0867 74.0292 74.2721 70.9946V70.9913Z" fill="#FFEB99"/>
<path d="M22.2272 49.0952C21.5474 49.2025 21.0074 49.2448 20.4903 49.3781C15.9594 50.5621 11.8319 52.5949 8.10117 55.4084C7.25875 56.0459 6.52367 56.8363 5.8016 57.6136C5.06651 58.4073 4.75752 59.3668 4.81606 60.4759C4.87786 61.6793 5.05025 62.8503 5.45682 63.9854C5.85039 65.0815 5.63246 66.1321 5.16734 67.1567C4.44852 68.7439 2.06763 68.6333 1.29676 67.5177C0.581195 66.4801 0.184379 65.3548 0.0607811 64.1188C-0.231952 61.1622 0.532406 58.5179 2.36036 56.1662C4.12977 53.8894 6.34803 52.1656 8.81349 50.7182C12.1539 48.7569 15.7643 47.4526 19.4625 46.3728C24.2112 44.9872 29.0576 44.0829 33.9885 43.6373C36.3206 43.4259 38.656 43.2763 40.9978 43.3706C43.8373 43.4845 46.5402 44.1805 49.0708 45.4946C50.7784 46.3793 52.2323 47.5795 53.4585 49.0594C54.2716 50.0384 55.0718 51.0304 55.8914 52.003C56.7046 52.969 57.1274 54.0423 57.2022 55.3336C57.3486 57.9161 56.6395 60.2645 55.5076 62.525C53.8943 65.7483 51.6631 68.5032 49.0447 70.9589C46.8688 72.9983 44.4748 74.7189 41.5573 75.8833C41.8728 76.0004 42.0712 76.0817 42.2761 76.15C44.94 77.025 47.4217 78.2382 49.6269 79.9946C50.1864 80.4402 50.6548 80.9508 51.0028 81.5656C52.1835 83.657 53.0844 85.8622 53.6049 88.2171C53.9529 89.8011 53.6569 91.2582 52.6909 92.5723C51.3638 94.3807 49.5944 95.6394 47.5908 96.5697C44.8489 97.8447 42.0257 98.879 39.004 99.2693C38.5421 99.3279 38.0705 99.3409 37.6054 99.3441C36.0702 99.3539 34.5349 99.3766 33.003 99.3344C32.3362 99.3148 31.6401 99.24 31.0189 99.0189C27.5516 97.7699 24.3511 96.0037 21.3327 93.9058C21.144 93.7725 20.9782 93.6066 20.8123 93.4667C21.5344 89.7132 21.5701 85.9435 21.5701 82.1803C21.5734 72.4876 21.5181 62.7917 21.4888 53.0991C21.4856 51.772 21.5018 50.4482 22.2304 49.0952H22.2272ZM27.7761 48.1844C27.8769 48.3471 27.9127 48.4511 27.981 48.5097C28.5177 48.9748 28.7616 49.5928 28.9437 50.2531C29.2885 51.5183 29.3633 52.8096 29.3633 54.1106C29.3633 59.9295 29.3633 65.7483 29.3633 71.5672C29.3633 72.5267 29.5064 72.7283 30.4464 72.8064C32.3752 72.9658 34.2747 72.891 36.1124 72.1331C37.9502 71.372 39.661 70.4027 41.245 69.2156C44.2699 66.9453 46.8622 64.2814 48.6512 60.9085C49.5977 59.1228 50.2482 57.2526 50.3685 55.2132C50.5182 52.7315 49.5717 50.8711 47.3111 49.7424C46.9631 49.57 46.6053 49.4172 46.241 49.2806C43.8991 48.4024 41.4369 48.1389 38.9715 48.0771C35.6734 47.9925 32.372 48.0608 29.0739 48.0771C28.6673 48.0771 28.2607 48.1422 27.7793 48.1844H27.7761ZM29.3633 84.6945C29.3633 85.8655 29.3373 87.0104 29.3698 88.152C29.4089 89.5636 29.5975 90.9525 30.3163 92.2047C31.1425 93.6489 32.3655 94.488 34.0601 94.4327C36.223 94.3612 38.347 94.0392 40.3538 93.1512C42.1297 92.3641 43.7528 91.3721 45.0733 89.9214C45.7564 89.1701 46.189 88.3049 46.3483 87.2998C46.5565 86.0118 46.0491 84.9547 45.2685 84.005C43.06 81.3216 40.2758 79.4189 37.0785 78.1048C36.7044 77.952 36.2686 77.8414 35.8685 77.8674C34.1349 77.9845 32.4012 78.1309 30.6774 78.3293C29.8382 78.4268 29.8089 78.5244 29.6983 79.3603C29.6821 79.4904 29.6723 79.6173 29.6626 79.7474C29.5617 81.4062 29.4609 83.065 29.3633 84.6945Z" fill="#FFEB99"/>
<path d="M157.447 59.0764C158.559 58.2958 159.688 57.8274 160.885 57.5867C162.062 57.3493 163.275 58.1494 163.711 59.3204C164.082 60.3091 164.131 61.3532 164.134 62.394C164.141 66.0337 164.134 69.6733 164.134 73.3097V74.1586C164.173 74.1683 164.209 74.1813 164.248 74.1911C164.326 74.0252 164.42 73.8626 164.476 73.687C164.908 72.2721 165.302 70.8442 165.764 69.4391C166.291 67.8291 166.974 66.2841 168.031 64.9375C169.12 63.5487 170.49 62.6445 172.288 62.4753C173.905 62.3225 175.382 62.6933 176.712 63.6333C178.179 64.6708 179.155 66.0955 179.935 67.6729C180.956 69.7383 181.552 71.9403 181.958 74.1976C182.527 77.3624 182.609 80.5564 182.397 83.7537C182.212 86.5379 181.727 89.27 180.706 91.8851C179.948 93.8171 178.933 95.5865 177.372 96.9981C174.825 99.3009 171.872 99.662 168.71 98.6732C166.876 98.1007 165.949 96.6924 166.008 94.9262C166.037 94.0383 166.619 93.2512 167.465 93.0105C168.031 92.8511 168.558 92.9422 168.932 93.4431C169.182 93.7748 169.4 94.1294 169.641 94.4676C170.535 95.7264 172.168 95.8923 173.271 94.8059C173.58 94.5001 173.824 94.1163 174.035 93.7358C174.816 92.3274 175.199 90.7857 175.391 89.2082C175.596 87.5331 175.765 85.8483 175.811 84.1635C175.912 80.5271 176.006 76.8842 175.694 73.2544C175.603 72.2005 175.352 71.1532 175.066 70.1319C174.887 69.4944 174.565 68.8731 174.204 68.3105C173.41 67.0875 172.015 66.8435 170.799 67.6502C170.086 68.1218 169.605 68.8016 169.176 69.5172C168.375 70.841 167.881 72.2916 167.471 73.7715C166.609 76.881 166.102 80.0587 165.715 83.2593C165.152 87.9137 165.032 92.5876 165.042 97.2648C165.048 99.9417 165.042 102.619 165.123 105.295C165.201 108.002 165.63 110.672 166.255 113.307C166.349 113.703 166.528 113.986 166.905 114.207C167.816 114.744 167.845 115.648 166.977 116.266C166.626 116.517 166.206 116.722 165.786 116.816C163.89 117.236 161.971 117.219 160.049 117.011C159.769 116.982 159.483 116.904 159.229 116.784C158.624 116.497 158.237 116.039 158.218 115.333C158.208 115.021 158.208 114.708 158.208 114.396C158.208 98.2796 158.208 82.1664 158.208 66.0499C158.208 63.7146 158.328 61.3662 157.457 59.0699L157.447 59.0764Z" fill="#FFEB99"/>
<path d="M220.251 77.6099C220.251 80.5014 220.244 83.0742 220.251 85.647C220.257 87.6506 220.335 89.6542 220.823 91.6057C221.028 92.4286 221.327 93.2483 221.73 93.9931C222.303 95.0534 223.223 95.3397 224.316 94.8258C224.84 94.5786 225.328 94.1883 225.728 93.7622C226.632 92.8059 227.188 91.622 227.676 90.412C228.545 88.2588 229.042 86.0015 229.559 83.7475C229.716 83.0645 229.891 82.3847 230.129 81.7277C230.389 81.0088 230.821 80.7519 231.485 80.8039C232.178 80.856 232.727 81.2853 232.835 81.9879C232.929 82.6221 233.014 83.2987 232.903 83.9199C232.272 87.514 231.254 90.9975 229.703 94.3119C229.049 95.7072 228.281 97.031 227.26 98.1889C226.902 98.5987 226.496 98.9663 226.095 99.3371C223.633 101.611 220.244 101.006 218.325 99.5973C216.975 98.6052 215.993 97.3107 215.242 95.8341C214.123 93.6321 213.527 91.274 213.163 88.8475C212.692 85.6991 212.652 82.5343 212.779 79.3598C212.975 74.4777 213.153 69.5956 213.332 64.7135C213.375 63.5783 213.297 63.4287 212.165 63.175C210.799 62.8693 209.41 62.6611 208.034 62.3944C206.986 62.1895 205.955 61.9293 205.051 61.3145C204.654 61.0446 204.342 60.7161 204.209 60.2347C204.03 59.5777 204.202 59.0995 204.83 58.8263C205.227 58.6539 205.672 58.5206 206.102 58.4978C208.125 58.3905 210.151 58.3222 212.178 58.2441C212.438 58.2344 212.698 58.2278 212.958 58.2441C213.384 58.2701 213.579 58.0522 213.632 57.6619C213.687 57.2488 213.768 56.839 213.788 56.4259C213.892 54.1426 213.963 51.8561 214.084 49.5728C214.158 48.0961 214.292 46.6194 214.406 45.146C214.419 44.9899 214.448 44.837 214.484 44.6874C214.705 43.7799 214.825 43.6986 215.772 43.8027C217.3 43.9751 218.8 44.2646 220.254 44.7687C220.524 44.863 220.79 44.9671 221.047 45.0875C222.007 45.5298 222.137 45.7185 222.056 46.7528C221.825 49.6801 221.578 52.6042 221.337 55.5315C221.285 56.1527 221.23 56.7739 221.187 57.3952C221.148 57.9514 221.308 58.2376 221.88 58.3417C222.722 58.4913 223.578 58.5889 224.43 58.6312C226.17 58.719 227.91 58.7255 229.651 58.8198C230.769 58.8784 231.872 59.0735 232.871 59.633C233.469 59.968 233.908 60.4363 233.989 61.1356C234.022 61.4316 233.98 61.7601 233.882 62.0431C233.72 62.5212 233.537 62.5375 233.056 62.3879C232.542 62.2253 232.002 62.0366 231.478 62.0464C228.385 62.1049 225.299 62.2708 222.248 62.8595C222.17 62.8758 222.095 62.8823 222.017 62.9018C221.093 63.123 221.008 63.1945 220.956 64.1508C220.706 68.7434 220.465 73.336 220.241 77.6132L220.251 77.6099Z" fill="#FFEB99"/>
<path d="M193.049 86.112C192.652 89.3841 193.488 92.1032 196.041 94.1849C196.958 94.933 198.012 95.3428 199.18 95.4241C202.345 95.6388 204.859 94.4809 206.654 91.83C207.734 90.233 208.33 88.4376 208.778 86.5901C208.97 85.8095 209.104 85.0126 209.283 84.2288C209.38 83.7994 209.494 83.3701 209.64 82.957C209.813 82.4691 210.167 82.2024 210.704 82.2024C211.228 82.2024 211.618 82.4398 211.829 82.8952C211.956 83.1684 212.031 83.4937 212.031 83.7962C212.031 88.6913 210.466 92.9912 206.947 96.4519C204.212 99.1418 200.839 100.179 197.037 99.9127C195.443 99.7988 193.898 99.4898 192.454 98.7775C189.338 97.2455 187.5 94.6695 186.498 91.43C185.591 88.4864 185.409 85.4582 185.578 82.4073C185.776 78.862 186.472 75.4078 187.728 72.0772C188.511 69.9988 189.484 68.0245 190.961 66.3364C192.268 64.8467 193.771 63.627 195.745 63.1456C198.825 62.391 201.457 63.1944 203.568 65.5623C204.83 66.9771 205.5 68.662 205.701 70.5615C206.154 74.8321 204.797 78.5953 202.537 82.1113C201.899 83.1001 201.083 83.9425 200.149 84.6646C198.162 86.1998 195.944 86.7495 193.475 86.1933C193.351 86.164 193.224 86.1478 193.046 86.1153L193.049 86.112ZM201.593 71.5958C201.548 71.0298 201.554 70.4509 201.45 69.8979C201.213 68.6327 200.175 67.9984 198.956 68.4083C198.484 68.5676 198.029 68.8799 197.658 69.2181C196.841 69.9597 196.292 70.9095 195.823 71.9015C194.919 73.814 194.379 75.8404 193.956 77.9025C193.696 79.1743 193.481 80.4558 193.644 81.7633C193.729 82.4333 193.927 82.622 194.581 82.6675C195.989 82.7619 197.186 82.3228 198.139 81.2624C198.962 80.3452 199.6 79.3141 200.071 78.179C200.953 76.0746 201.388 73.8693 201.59 71.599L201.593 71.5958Z" fill="#FFEB99"/>
<path d="M114.162 37.2842C109.895 37.32 106.161 35.9376 103.009 33.0526C101.903 32.0411 101.028 30.8539 100.443 29.465C99.3529 26.8825 99.5286 24.391 101.031 22.0231C102.453 19.7821 104.495 18.2437 106.834 17.076C108.831 16.0774 110.952 15.4855 113.183 15.3391C116.741 15.1082 119.623 16.4743 121.893 19.1674C123.864 21.5092 124.837 24.2707 125.182 27.2793C125.312 28.4242 125.292 29.5593 125.068 30.6912C124.57 33.1925 123.142 34.9619 120.853 36.045C119.083 36.8841 117.19 37.1834 115.258 37.281C114.894 37.3005 114.53 37.281 114.165 37.281L114.162 37.2842Z" fill="#FFEB99"/>
<path d="M107.442 11.2803C107.435 13.2449 106.908 14.7313 105.711 15.9282C104.345 17.2976 102.732 17.6261 100.923 16.9268C98.4873 15.9868 96.8772 13.6059 96.9325 10.9843C96.9683 9.24096 97.3781 7.59191 98.3344 6.11199C99.8111 3.81893 102.098 3.40585 104.27 5.05165C105.851 6.2486 106.713 7.91717 107.201 9.79065C107.351 10.3631 107.396 10.9648 107.445 11.2771L107.442 11.2803Z" fill="#FFEB99"/>
<path d="M118.83 6.92181C118.853 8.94816 118.202 10.6915 116.647 12.0414C114.683 13.749 112.279 13.7424 110.406 11.947C108.548 10.1679 107.901 7.99841 108.643 5.48742C109.04 4.15387 109.667 2.9244 110.627 1.91285C111.154 1.35666 111.772 0.849257 112.429 0.462201C113.574 -0.211081 114.761 -0.123261 115.899 0.559778C116.869 1.14199 117.522 1.99416 118 2.99921C118.592 4.23844 118.827 5.55573 118.827 6.92181H118.83Z" fill="#FFEB99"/>
<path d="M130.718 10.0178C130.659 11.9369 130.2 13.4656 129.348 14.8642C128.265 16.6336 126.681 17.6809 124.603 17.8695C123.051 18.0127 121.714 17.489 120.804 16.188C119.334 14.0933 119.103 11.8133 120.352 9.58525C121.61 7.33772 123.601 5.90985 126.161 5.38944C127.719 5.07394 129.043 5.68217 129.905 7.01897C130.545 8.01751 130.718 9.13314 130.721 10.0178H130.718Z" fill="#FFEB99"/>
<path d="M137.092 20.8552C137.115 21.5806 136.943 22.2636 136.637 22.9011C135.583 25.1064 134.035 26.7782 131.566 27.3701C130.483 27.6303 129.397 27.5295 128.359 27.0937C126.574 26.3456 125.627 24.4754 126.008 22.4035C126.404 20.2535 127.579 18.7118 129.647 17.9019C131.075 17.3425 132.542 17.0693 134.071 17.3262C135.447 17.5571 136.514 18.2077 136.923 19.629C137.037 20.0226 137.04 20.4454 137.096 20.8552H137.092Z" fill="#FFEB99"/>
</svg>
