<svg width="60" height="60" viewBox="0 0 60 60" fill="none" xmlns="http://www.w3.org/2000/svg">
<g clip-path="url(#clip0_3280_28169)">
<rect width="60" height="60" rx="30" fill="white"/>
<path fill-rule="evenodd" clip-rule="evenodd" d="M100 0H0V100H100V0ZM46.0873 21.7473C45.6955 20.2745 44.5367 19.1127 43.0623 18.7145C40.3963 18 29.7 18 29.7 18C29.7 18 19.0091 18 16.3377 18.7145C14.8688 19.1073 13.7099 20.2691 13.3127 21.7473C12.6 24.42 12.6 30 12.6 30C12.6 30 12.6 35.58 13.3127 38.2527C13.7045 39.7255 14.8633 40.8873 16.3377 41.2855C19.0091 42 29.7 42 29.7 42C29.7 42 40.3963 42 43.0623 41.2855C44.5312 40.8927 45.6901 39.7309 46.0873 38.2527C46.8 35.58 46.8 30 46.8 30C46.8 30 46.8 24.42 46.0873 21.7473ZM26.2833 35.1436L35.1679 30L26.2833 24.8564V35.1436Z" fill="#FF3000"/>
</g>
<defs>
<clipPath id="clip0_3280_28169">
<rect width="60" height="60" rx="30" fill="white"/>
</clipPath>
</defs>
</svg>
